<mxfile host="app.diagrams.net" agent="Mozilla/5.0 (Windows NT 10.0; Win64; x64) AppleWebKit/537.36 (KHTML, like Gecko) Chrome/128.0.0.0 Safari/537.36 OPR/114.0.0.0" version="24.8.0">
  <diagram name="Page-1" id="WaGjp5uV9UT_FyI1Jcyz">
    <mxGraphModel dx="1393" dy="763" grid="1" gridSize="10" guides="1" tooltips="1" connect="1" arrows="1" fold="1" page="1" pageScale="1" pageWidth="850" pageHeight="1100" math="0" shadow="0">
      <root>
        <mxCell id="0" />
        <mxCell id="1" parent="0" />
        <mxCell id="lKX9yiAqkxWrGYZ0uAKW-1" value="funcionario" style="swimlane;whiteSpace=wrap;html=1;fillColor=default;" vertex="1" parent="1">
          <mxGeometry x="70" y="100" width="200" height="200" as="geometry" />
        </mxCell>
        <mxCell id="lKX9yiAqkxWrGYZ0uAKW-7" value="- idFuncionario: string&lt;div&gt;- FunçãoFuncionario: string&lt;/div&gt;&lt;div&gt;- idVoz: string&lt;/div&gt;&lt;div&gt;- Nome: string&lt;/div&gt;&lt;div&gt;- idFace: imagem&lt;/div&gt;&lt;div&gt;- NívelAcesso: string&lt;/div&gt;&lt;div&gt;- idPorta: array&lt;/div&gt;&lt;div&gt;- idAr: array&lt;/div&gt;&lt;div&gt;- idLuz:array&lt;/div&gt;" style="text;html=1;align=left;verticalAlign=middle;resizable=0;points=[];autosize=1;strokeColor=none;fillColor=none;" vertex="1" parent="lKX9yiAqkxWrGYZ0uAKW-1">
          <mxGeometry x="20" y="40" width="170" height="140" as="geometry" />
        </mxCell>
        <mxCell id="lKX9yiAqkxWrGYZ0uAKW-9" value="controle por voz" style="swimlane;whiteSpace=wrap;html=1;fillColor=default;" vertex="1" parent="1">
          <mxGeometry x="280" y="390" width="200" height="100" as="geometry" />
        </mxCell>
        <mxCell id="lKX9yiAqkxWrGYZ0uAKW-10" value="TimbreUsuário: string&lt;div&gt;Comandos: string&lt;/div&gt;" style="text;html=1;align=left;verticalAlign=middle;resizable=0;points=[];autosize=1;strokeColor=none;fillColor=none;" vertex="1" parent="lKX9yiAqkxWrGYZ0uAKW-9">
          <mxGeometry y="40" width="140" height="40" as="geometry" />
        </mxCell>
        <mxCell id="lKX9yiAqkxWrGYZ0uAKW-11" value="controle ar-condicionado" style="swimlane;whiteSpace=wrap;html=1;fillColor=default;" vertex="1" parent="1">
          <mxGeometry x="580" y="310" width="200" height="80" as="geometry" />
        </mxCell>
        <mxCell id="lKX9yiAqkxWrGYZ0uAKW-12" value="- id: string&lt;div&gt;- Estado: boolean&lt;/div&gt;" style="text;html=1;align=left;verticalAlign=middle;resizable=0;points=[];autosize=1;strokeColor=none;fillColor=none;" vertex="1" parent="lKX9yiAqkxWrGYZ0uAKW-11">
          <mxGeometry y="30" width="120" height="40" as="geometry" />
        </mxCell>
        <mxCell id="lKX9yiAqkxWrGYZ0uAKW-13" value="" style="rounded=0;whiteSpace=wrap;html=1;fillColor=none;" vertex="1" parent="1">
          <mxGeometry x="580" y="390" width="200" height="60" as="geometry" />
        </mxCell>
        <mxCell id="lKX9yiAqkxWrGYZ0uAKW-14" value="- Ligar()&lt;div&gt;- Desligar()&lt;/div&gt;" style="text;html=1;align=left;verticalAlign=middle;resizable=0;points=[];autosize=1;strokeColor=none;fillColor=none;" vertex="1" parent="1">
          <mxGeometry x="590" y="400" width="80" height="40" as="geometry" />
        </mxCell>
        <mxCell id="lKX9yiAqkxWrGYZ0uAKW-16" value="controle das luzes" style="swimlane;whiteSpace=wrap;html=1;fillColor=default;" vertex="1" parent="1">
          <mxGeometry x="560" y="590" width="200" height="80" as="geometry" />
        </mxCell>
        <mxCell id="lKX9yiAqkxWrGYZ0uAKW-17" value="- id: string&lt;div&gt;- Estado: boolean&lt;/div&gt;" style="text;html=1;align=left;verticalAlign=middle;resizable=0;points=[];autosize=1;strokeColor=none;fillColor=none;" vertex="1" parent="lKX9yiAqkxWrGYZ0uAKW-16">
          <mxGeometry y="30" width="120" height="40" as="geometry" />
        </mxCell>
        <mxCell id="lKX9yiAqkxWrGYZ0uAKW-18" value="" style="rounded=0;whiteSpace=wrap;html=1;fillColor=none;" vertex="1" parent="1">
          <mxGeometry x="560" y="670" width="200" height="60" as="geometry" />
        </mxCell>
        <mxCell id="lKX9yiAqkxWrGYZ0uAKW-19" value="- Ligar()&lt;div&gt;- Desligar()&lt;/div&gt;" style="text;html=1;align=left;verticalAlign=middle;resizable=0;points=[];autosize=1;strokeColor=none;fillColor=none;" vertex="1" parent="1">
          <mxGeometry x="570" y="680" width="80" height="40" as="geometry" />
        </mxCell>
        <mxCell id="lKX9yiAqkxWrGYZ0uAKW-20" value="" style="rounded=0;whiteSpace=wrap;html=1;fillColor=none;" vertex="1" parent="1">
          <mxGeometry x="280" y="490" width="200" height="60" as="geometry" />
        </mxCell>
        <mxCell id="lKX9yiAqkxWrGYZ0uAKW-21" value="-&amp;nbsp; ProcessarComando()&lt;div&gt;- ChecarNíveldeAcesso()&lt;/div&gt;&lt;div&gt;- ExecutarComando()&lt;/div&gt;" style="text;html=1;align=left;verticalAlign=middle;resizable=0;points=[];autosize=1;strokeColor=none;fillColor=none;" vertex="1" parent="1">
          <mxGeometry x="280" y="490" width="160" height="60" as="geometry" />
        </mxCell>
        <mxCell id="lKX9yiAqkxWrGYZ0uAKW-22" value="controle portas" style="swimlane;whiteSpace=wrap;html=1;fillColor=default;" vertex="1" parent="1">
          <mxGeometry x="290" y="660" width="200" height="80" as="geometry" />
        </mxCell>
        <mxCell id="lKX9yiAqkxWrGYZ0uAKW-23" value="- id: string&lt;div&gt;- Estado: boolean&lt;/div&gt;" style="text;html=1;align=left;verticalAlign=middle;resizable=0;points=[];autosize=1;strokeColor=none;fillColor=none;" vertex="1" parent="lKX9yiAqkxWrGYZ0uAKW-22">
          <mxGeometry y="30" width="120" height="40" as="geometry" />
        </mxCell>
        <mxCell id="lKX9yiAqkxWrGYZ0uAKW-24" value="" style="rounded=0;whiteSpace=wrap;html=1;fillColor=none;" vertex="1" parent="1">
          <mxGeometry x="290" y="740" width="200" height="60" as="geometry" />
        </mxCell>
        <mxCell id="lKX9yiAqkxWrGYZ0uAKW-25" value="- Ligar()&lt;div&gt;- Desligar()&lt;/div&gt;" style="text;html=1;align=left;verticalAlign=middle;resizable=0;points=[];autosize=1;strokeColor=none;fillColor=none;" vertex="1" parent="1">
          <mxGeometry x="300" y="750" width="80" height="40" as="geometry" />
        </mxCell>
        <mxCell id="lKX9yiAqkxWrGYZ0uAKW-26" value="biometria facial" style="swimlane;whiteSpace=wrap;html=1;fillColor=default;" vertex="1" parent="1">
          <mxGeometry x="400" y="20" width="200" height="100" as="geometry" />
        </mxCell>
        <mxCell id="lKX9yiAqkxWrGYZ0uAKW-27" value="idImagem: string&lt;div&gt;biometriaUsuário: string&lt;/div&gt;&lt;div&gt;idUsuário: string&lt;/div&gt;" style="text;html=1;align=left;verticalAlign=middle;resizable=0;points=[];autosize=1;strokeColor=none;fillColor=none;" vertex="1" parent="lKX9yiAqkxWrGYZ0uAKW-26">
          <mxGeometry y="30" width="150" height="60" as="geometry" />
        </mxCell>
        <mxCell id="lKX9yiAqkxWrGYZ0uAKW-28" value="" style="rounded=0;whiteSpace=wrap;html=1;fillColor=none;" vertex="1" parent="1">
          <mxGeometry x="400" y="120" width="200" height="60" as="geometry" />
        </mxCell>
        <mxCell id="lKX9yiAqkxWrGYZ0uAKW-29" value="- CapturarImagem()&lt;div&gt;- ReconhecerBiometria()&lt;/div&gt;" style="text;html=1;align=left;verticalAlign=middle;resizable=0;points=[];autosize=1;strokeColor=none;fillColor=none;" vertex="1" parent="1">
          <mxGeometry x="400" y="130" width="150" height="40" as="geometry" />
        </mxCell>
        <mxCell id="lKX9yiAqkxWrGYZ0uAKW-30" value="alerta" style="swimlane;whiteSpace=wrap;html=1;fillColor=default;" vertex="1" parent="1">
          <mxGeometry x="650" y="30" width="200" height="100" as="geometry" />
        </mxCell>
        <mxCell id="lKX9yiAqkxWrGYZ0uAKW-31" value="id: string&lt;div&gt;mensagem: string&lt;/div&gt;" style="text;html=1;align=left;verticalAlign=middle;resizable=0;points=[];autosize=1;strokeColor=none;fillColor=none;" vertex="1" parent="lKX9yiAqkxWrGYZ0uAKW-30">
          <mxGeometry y="40" width="120" height="40" as="geometry" />
        </mxCell>
        <mxCell id="lKX9yiAqkxWrGYZ0uAKW-32" value="" style="rounded=0;whiteSpace=wrap;html=1;fillColor=none;" vertex="1" parent="1">
          <mxGeometry x="650" y="130" width="200" height="60" as="geometry" />
        </mxCell>
        <mxCell id="lKX9yiAqkxWrGYZ0uAKW-33" value="- EnviarAlerta()" style="text;html=1;align=left;verticalAlign=middle;resizable=0;points=[];autosize=1;strokeColor=none;fillColor=none;" vertex="1" parent="1">
          <mxGeometry x="650" y="145" width="100" height="30" as="geometry" />
        </mxCell>
      </root>
    </mxGraphModel>
  </diagram>
</mxfile>
